<svg width="132" height="34" viewBox="0 0 132 34" fill="none" xmlns="http://www.w3.org/2000/svg">
<path d="M32.5554 14.636H27.7566V23.509H26.4373V13.5559H32.5554V14.636ZM32.1521 22.4768L32.5896 21.9368C33.0818 21.2987 33.3621 20.3417 33.4304 19.0657L33.5466 16.1125H38.3113V22.4768H39.2615V25.6829H37.9968V23.509H32.8357V25.6829H31.571L31.5779 22.4768H32.1521ZM33.6492 22.4768H37.0466V17.2815H34.7703L34.6951 19.0452C34.6176 20.5172 34.269 21.6611 33.6492 22.4768ZM43.7322 23.6458C42.7296 23.6458 41.9138 23.3176 41.2849 22.6614C40.656 22.0006 40.3416 21.1187 40.3416 20.0159V19.7834C40.3416 19.0497 40.4806 18.3958 40.7585 17.8215C41.0411 17.2428 41.433 16.7916 41.9343 16.468C42.4402 16.1399 42.9871 15.9758 43.575 15.9758C44.5365 15.9758 45.2839 16.2926 45.8171 16.926C46.3503 17.5595 46.6169 18.4664 46.6169 19.6467V20.1731H41.6062C41.6244 20.9023 41.8363 21.4924 42.2419 21.9436C42.6521 22.3902 43.1716 22.6135 43.8005 22.6135C44.2472 22.6135 44.6254 22.5224 44.9353 22.3401C45.2452 22.1578 45.5164 21.9163 45.7488 21.6155L46.5212 22.217C45.9014 23.1695 44.9718 23.6458 43.7322 23.6458ZM43.575 17.0149C43.0645 17.0149 42.6361 17.2017 42.2898 17.5754C41.9434 17.9446 41.7292 18.4641 41.6472 19.134H45.3523V19.0383C45.3158 18.3958 45.1427 17.899 44.8328 17.5481C44.5229 17.1926 44.1036 17.0149 43.575 17.0149ZM53.863 20.3577H52.9402V23.509H51.6687V16.1125H52.9402V19.2434H53.7673L56.2556 16.1125H57.7869L54.8611 19.6672L58.033 23.509H56.4265L53.863 20.3577ZM61.5398 21.6565L63.2625 16.1125H64.616L61.6423 24.6506C61.182 25.8811 60.4506 26.4963 59.448 26.4963L59.2087 26.4758L58.7371 26.387V25.3616L59.0789 25.3889C59.5072 25.3889 59.8399 25.3023 60.0769 25.1292C60.3184 24.956 60.5167 24.6392 60.6716 24.179L60.9519 23.427L58.3132 16.1125H59.6941L61.5398 21.6565ZM71.8005 23.509H70.5359V17.1584H67.1316V23.509H65.8601V16.1125H71.8005V23.509ZM78.616 16.1125H79.8806V23.509H78.616V18.1155L75.2048 23.509H73.9402V16.1125H75.2048V21.5129L78.616 16.1125ZM87.407 17.1379H84.9255V23.509H83.6609V17.1379H81.2273V16.1125H87.407V17.1379ZM90.0183 18.6624H91.9392C92.7778 18.6715 93.4408 18.8902 93.9285 19.3186C94.4161 19.747 94.6599 20.328 94.6599 21.0618C94.6599 21.8 94.4093 22.3925 93.908 22.8391C93.4067 23.2857 92.7322 23.509 91.8845 23.509H88.7537V16.1125H90.0183V18.6624ZM90.0183 19.6946V22.4768H91.8982C92.3722 22.4768 92.739 22.356 92.9988 22.1145C93.2585 21.8684 93.3884 21.5334 93.3884 21.1096C93.3884 20.6995 93.2608 20.3645 93.0056 20.1047C92.755 19.8404 92.4018 19.7037 91.946 19.6946H90.0183ZM104.189 19.0657L99.6707 17.2952V15.9963L105.509 18.5803V19.5784L99.6707 22.1692V20.8567L104.189 19.0657Z" fill="#5B0E58"/>
<rect x="0.5" y="0.5" width="131" height="33" rx="16.5" stroke="#5B0E58"/>
</svg>
