<svg width="234" height="27" viewBox="0 0 234 27" fill="none" xmlns="http://www.w3.org/2000/svg">
<path d="M32.3689 5.66406C32.5447 4.96094 32.3689 4.375 31.3142 4.375H27.8572C26.9783 4.375 26.5681 4.84375 26.3337 5.37109C26.3337 5.37109 24.5759 9.64844 22.115 12.4609C21.2947 13.2227 20.9431 13.5156 20.4744 13.5156C20.2986 13.5156 19.947 13.2227 19.947 12.5195V5.66406C19.947 4.78516 19.7126 4.375 18.9509 4.375H13.5603C12.9744 4.375 12.6814 4.78516 12.6814 5.19531C12.6814 6.01562 13.9119 6.19141 14.0291 8.53516V13.6328C14.0291 14.7461 13.8533 14.9805 13.3845 14.9805C12.2126 14.9805 9.40015 10.6445 7.70093 5.72266C7.34937 4.78516 6.9978 4.375 6.1189 4.375H2.66187C1.72437 4.375 1.48999 4.84375 1.48999 5.37109C1.48999 6.30859 2.66187 10.8203 6.93921 16.8555C9.8103 20.957 13.8533 23.125 17.4861 23.125C19.6541 23.125 19.947 22.6562 19.947 21.8359C19.947 17.9102 19.7712 17.5 20.8259 17.5C21.3533 17.5 22.2322 17.793 24.283 19.7852C26.6267 22.1289 27.0369 23.125 28.3259 23.125H31.783C32.7791 23.125 33.2478 22.6562 32.9548 21.6602C32.3103 19.668 27.9158 15.4492 27.6814 15.1562C27.1541 14.5117 27.3298 14.2188 27.6814 13.6328C27.6814 13.6328 31.9001 7.65625 32.3689 5.66406Z" fill="#7A7A7A"/>
<path d="M96.4087 0.625H75.7837C74.2017 0.625 72.9712 1.91406 72.9712 3.4375V24.0625C72.9712 25.6445 74.2017 26.875 75.7837 26.875H83.811V17.9688H80.1196V13.75H83.811V10.5859C83.811 6.95312 85.979 4.90234 89.2603 4.90234C90.9009 4.90234 92.5415 5.19531 92.5415 5.19531V8.76953H90.7251C88.9087 8.76953 88.3228 9.88281 88.3228 11.0547V13.75H92.3657L91.7212 17.9688H88.3228V26.875H96.4087C97.9321 26.875 99.2212 25.6445 99.2212 24.0625V3.4375C99.2212 1.91406 97.9321 0.625 96.4087 0.625Z" fill="#7A7A7A"/>
<path d="M165.808 7.65625C166.979 6.77734 168.034 5.72266 168.854 4.49219C167.8 4.96094 166.569 5.3125 165.339 5.42969C166.628 4.66797 167.565 3.49609 168.034 2.03125C166.862 2.73438 165.515 3.26172 164.167 3.55469C162.995 2.32422 161.413 1.62109 159.655 1.62109C156.257 1.62109 153.503 4.375 153.503 7.77344C153.503 8.24219 153.562 8.71094 153.679 9.17969C148.581 8.88672 144.011 6.42578 140.964 2.73438C140.437 3.61328 140.144 4.66797 140.144 5.83984C140.144 7.94922 141.198 9.82422 142.897 10.9375C141.901 10.8789 140.905 10.6445 140.085 10.1758V10.2344C140.085 13.2227 142.194 15.6836 145.007 16.2695C144.538 16.3867 143.952 16.5039 143.425 16.5039C143.015 16.5039 142.663 16.4453 142.253 16.3867C143.015 18.8477 145.3 20.6055 147.995 20.6641C145.886 22.3047 143.249 23.3008 140.378 23.3008C139.851 23.3008 139.382 23.2422 138.913 23.1836C141.608 24.9414 144.831 25.9375 148.347 25.9375C159.655 25.9375 165.808 16.6211 165.808 8.47656C165.808 8.18359 165.808 7.94922 165.808 7.65625Z" fill="#7A7A7A"/>
<path d="M218.463 9.17969C218.463 10.4102 219.517 11.4648 220.806 11.4648C222.037 11.4648 223.091 10.4688 223.091 9.17969C223.091 7.83203 222.037 6.83594 220.806 6.83594C219.517 6.83594 218.463 7.83203 218.463 9.17969ZM233.931 3.4375C233.931 1.91406 232.642 0.625 231.119 0.625H210.494C208.912 0.625 207.681 1.91406 207.681 3.4375V24.0625C207.681 25.6445 208.912 26.875 210.494 26.875H231.119C232.642 26.875 233.931 25.6445 233.931 24.0625V3.4375ZM216.002 9.17969C216.002 6.54297 218.17 4.375 220.806 4.375C223.384 4.375 225.552 6.54297 225.552 9.17969C225.552 11.7578 223.384 13.8672 220.806 13.8672C218.17 13.8672 216.002 11.7578 216.002 9.17969ZM226.255 14.4531C226.724 15.3906 226.197 15.8594 224.966 16.6211C223.97 17.2656 222.623 17.5 221.685 17.6172L222.447 18.3789L225.259 21.1914C226.255 22.2461 224.615 23.8281 223.56 22.832C222.857 22.1289 221.861 21.1328 220.806 20.0195L217.994 22.832C216.939 23.8281 215.298 22.1875 216.353 21.1914C217.056 20.4297 218.052 19.4336 219.107 18.3789L219.869 17.6172C218.99 17.5 217.584 17.2656 216.588 16.6211C215.357 15.8594 214.83 15.3906 215.298 14.4531C215.591 13.9258 216.295 13.457 217.291 14.2773C217.291 14.2773 218.638 15.332 220.806 15.332C222.916 15.332 224.263 14.2773 224.263 14.2773C225.259 13.457 225.963 13.9258 226.255 14.4531Z" fill="#7A7A7A"/>
</svg>
