<svg width="16" height="21" viewBox="0 0 16 21" fill="none" xmlns="http://www.w3.org/2000/svg">
<path d="M15.7292 14.4292C15.7292 15.4305 15.5336 16.3164 15.1425 17.087C14.7515 17.853 14.2221 18.4851 13.5591 18.9835C12.7722 19.5787 11.9137 20.0032 10.9742 20.257C10.0346 20.5108 8.84229 20.6354 7.39719 20.6354H0V0.457275H6.17625C7.69766 0.457275 8.83753 0.512647 9.59108 0.618774C10.3494 0.724902 11.0696 0.955614 11.7611 1.29707C12.5242 1.68928 13.0822 2.183 13.4304 2.7967C13.7738 3.40578 13.9502 4.13483 13.9502 4.98385C13.9502 5.94362 13.6974 6.75572 13.1919 7.42941C12.6864 8.10309 12.0139 8.64295 11.1745 9.04901V9.15975C12.5862 9.44122 13.6974 10.0365 14.5082 10.9547C15.3238 11.8683 15.7292 13.0265 15.7292 14.4292ZM11.0648 5.33454C11.0648 4.85004 10.9789 4.43476 10.812 4.10253C10.6451 3.77031 10.3732 3.49807 10.0012 3.29042C9.56246 3.04587 9.0283 2.89821 8.40352 2.83823C7.77874 2.77824 7.00134 2.75056 6.0761 2.75056H2.77574V8.57835H6.36226C7.23027 8.57835 7.92182 8.53682 8.4369 8.44915C8.94722 8.36148 9.42415 8.18614 9.8677 7.9139C10.3065 7.64627 10.6165 7.29559 10.7977 6.86185C10.9742 6.42811 11.0648 5.92055 11.0648 5.33454ZM12.8437 14.5353C12.8437 13.7232 12.7197 13.0772 12.467 12.5974C12.2142 12.1175 11.7563 11.7114 11.0934 11.3792C10.6451 11.1531 10.1014 11.0054 9.46231 10.9408C8.82322 10.8716 8.04582 10.8393 7.13011 10.8393H2.77574V18.3467H6.4481C7.66428 18.3467 8.65629 18.2867 9.43369 18.1621C10.2063 18.0422 10.8454 17.8161 11.3366 17.4931C11.8613 17.1378 12.2428 16.7363 12.486 16.2841C12.7245 15.832 12.8437 15.2506 12.8437 14.5353Z" fill="#47093E"/>
</svg>
