<svg width="19" height="21" viewBox="0 0 19 21" fill="none" xmlns="http://www.w3.org/2000/svg">
<path d="M18.0391 0.457251L10.1125 17.4377C9.79294 18.1252 9.42093 18.6882 8.98692 19.1311C8.55292 19.5741 8.08076 19.9155 7.57998 20.1601C7.09351 20.3862 6.62612 20.5385 6.17304 20.6169C5.71996 20.6907 5.28595 20.7323 4.86148 20.7323C4.48948 20.7323 4.03639 20.7138 3.50223 20.6769C2.96807 20.64 2.62945 20.6169 2.47683 20.6123V18.1021H2.67237C2.81545 18.1206 3.04915 18.1483 3.37346 18.1898C3.69777 18.2313 4.07454 18.2498 4.49424 18.2498C4.68025 18.2498 4.94256 18.236 5.28118 18.2083C5.61503 18.1806 5.91549 18.116 6.17781 18.0191C6.47827 17.9083 6.77397 17.7376 7.0649 17.5023C7.36059 17.267 7.6086 16.9255 7.81368 16.4733L8.31922 15.4028L0.55957 0.452637H3.62623L9.7214 12.3528L15.1822 0.452637H18.0391V0.457251Z" fill="#47093E"/>
</svg>
