<svg width="15" height="21" viewBox="0 0 15 21" fill="none" xmlns="http://www.w3.org/2000/svg">
<path d="M14.6198 6.55731C14.6198 7.45248 14.4577 8.27843 14.1381 9.04439C13.8138 9.80574 13.3655 10.4702 12.7884 11.0285C12.0683 11.7253 11.2193 12.2467 10.2368 12.5927C9.25437 12.9434 8.01912 13.1142 6.52632 13.1142H3.75059V20.6354H0.974854V0.457275H6.63602C7.89035 0.457275 8.94913 0.558789 9.81715 0.761816C10.6852 0.964843 11.4578 1.28323 12.1303 1.71697C12.922 2.23376 13.5372 2.87514 13.9712 3.64111C14.4004 4.40707 14.6198 5.38068 14.6198 6.55731ZM11.7344 6.62191C11.7344 5.92516 11.6056 5.32069 11.3576 4.8039C11.1049 4.29172 10.7233 3.86721 10.2082 3.54421C9.75991 3.26274 9.2496 3.06433 8.67251 2.93974C8.10019 2.81977 7.37049 2.75979 6.49294 2.75979H3.74582V10.8255H6.08755C7.20834 10.8255 8.11927 10.7286 8.82036 10.5348C9.52145 10.341 10.089 10.0318 10.5278 9.60733C10.9665 9.17359 11.2766 8.71678 11.4578 8.2369C11.6438 7.75702 11.7344 7.21715 11.7344 6.62191Z" fill="#47093E"/>
</svg>
