<svg width="5" height="5" viewBox="0 0 5 5" fill="none" xmlns="http://www.w3.org/2000/svg">
<path d="M5.00012 2.30251C5.00012 2.93928 4.76643 3.47914 4.30381 3.92673C3.84118 4.37892 3.2784 4.60041 2.62024 4.60041C1.96684 4.60041 1.40406 4.37431 0.941433 3.92673C0.478809 3.47914 0.245117 2.93466 0.245117 2.30251C0.245117 1.67036 0.478809 1.12588 0.941433 0.678295C1.40883 0.226098 1.96683 0 2.625 0C3.28316 0 3.84117 0.226098 4.30857 0.67368C4.77119 1.12588 5.00012 1.66574 5.00012 2.30251ZM4.68059 2.30251C4.68059 1.75341 4.48027 1.28276 4.07487 0.885936C3.67425 0.493725 3.18779 0.295312 2.62024 0.295312C2.05269 0.295312 1.56621 0.493725 1.16559 0.885936C0.764969 1.27815 0.559894 1.75341 0.559894 2.30251C0.559894 2.85161 0.760199 3.32226 1.16559 3.71908C1.56621 4.1113 2.05269 4.30971 2.62024 4.30971C3.18779 4.30971 3.67425 4.11591 4.07487 3.71908C4.48027 3.32226 4.68059 2.85161 4.68059 2.30251ZM4.15596 3.46992H3.54071L2.62977 2.52861H2.18623V3.46992H1.73314V1.03821H2.59163C2.76332 1.03821 2.90639 1.04282 3.01609 1.06128C3.12578 1.07512 3.23548 1.10742 3.34517 1.16279C3.45963 1.22278 3.54548 1.2966 3.59794 1.38427C3.65517 1.47195 3.67903 1.57807 3.67903 1.70727C3.67903 1.878 3.62656 2.02104 3.52163 2.1364C3.41671 2.25175 3.27363 2.34404 3.0924 2.40864L4.15596 3.46992ZM3.18779 1.73496C3.18779 1.67036 3.17347 1.61499 3.14963 1.56423C3.12578 1.51347 3.08286 1.47195 3.02086 1.43965C2.96363 1.40735 2.90163 1.38889 2.83962 1.37966C2.77762 1.37043 2.69654 1.36582 2.59638 1.36582H2.18623V2.18715H2.5344C2.64886 2.18715 2.74424 2.17793 2.83009 2.15947C2.91117 2.14101 2.9827 2.11333 3.03039 2.0718C3.08763 2.02566 3.12578 1.97951 3.14963 1.92414C3.17347 1.88261 3.18779 1.8134 3.18779 1.73496Z" fill="#47093E"/>
</svg>
