<svg width="19" height="21" viewBox="0 0 19 21" fill="none" xmlns="http://www.w3.org/2000/svg">
<path d="M18.0352 19.1727C17.5201 19.3895 17.0575 19.5926 16.6426 19.7817C16.2277 19.9709 15.6839 20.1693 15.0115 20.377C14.4392 20.5477 13.8239 20.6954 13.1562 20.82C12.4885 20.9399 11.754 21.0045 10.9528 21.0045C9.44092 21.0045 8.06259 20.7969 6.82734 20.3862C5.59208 19.9755 4.51423 19.3295 3.59852 18.4528C2.70189 17.5946 2.0008 16.5056 1.50002 15.1813C0.994471 13.857 0.741699 12.3205 0.741699 10.5671C0.741699 8.90596 0.984933 7.42018 1.4714 6.10973C1.95787 4.79928 2.65419 3.69186 3.57467 2.78747C4.46176 1.91076 5.53486 1.2417 6.78919 0.780272C8.04829 0.318847 9.44092 0.0881348 10.9719 0.0881348C12.0927 0.0881348 13.2087 0.221948 14.3247 0.480346C15.4407 0.743358 16.6807 1.20478 18.0448 1.86462V5.04845H17.8349C16.6855 4.11637 15.5456 3.44269 14.4153 3.01818C13.285 2.59367 12.0736 2.38142 10.7906 2.38142C9.73184 2.38142 8.78275 2.54753 7.93859 2.87514C7.09442 3.20737 6.34087 3.71955 5.67794 4.41168C5.03408 5.08998 4.5333 5.94823 4.17083 6.98182C3.80837 8.01541 3.6319 9.2105 3.6319 10.5671C3.6319 11.9883 3.82744 13.2064 4.22806 14.2262C4.62392 15.2506 5.139 16.0811 5.76378 16.7225C6.41718 17.3916 7.18027 17.8853 8.05305 18.2083C8.92584 18.5313 9.84631 18.6882 10.8192 18.6882C12.1547 18.6882 13.4042 18.4667 14.5727 18.0237C15.7412 17.5807 16.8334 16.9163 17.8492 16.0304H18.0448V19.1727H18.0352Z" fill="#47093E"/>
</svg>
